<?xml version="1.0" encoding="iso-8859-1"?>
<!-- Generator: Adobe Illustrator 18.0.0, SVG Export Plug-In . SVG Version: 6.00 Build 0)  -->
<!DOCTYPE svg PUBLIC "-//W3C//DTD SVG 1.1//EN" "http://www.w3.org/Graphics/SVG/1.1/DTD/svg11.dtd">
<svg version="1.1" id="Capa_1" xmlns="http://www.w3.org/2000/svg" xmlns:xlink="http://www.w3.org/1999/xlink" x="0px" y="0px"
	 viewBox="0 0 493.133 493.133" style="enable-background:new 0 0 493.133 493.133;" xml:space="preserve">
<g>
	<path d="M416.588,104.553c-2.867-2.858-7.512-2.858-10.379,0.008l-1.065,1.066l-4.126-4.125c-1.184-1.187-2.785-1.858-4.468-1.858
		c-1.339,0-2.565,0.526-3.631,1.297c1.208,6.148,0.647,12.651-1.914,18.819c-0.188,0.451-14.62,31.573-14.62,31.573
		c0.219,0.02,0.418,0.128,0.641,0.128c1.953,0,3.81-0.77,5.189-2.147l34.389-34.366c1.377-1.377,2.147-3.25,2.147-5.198
		C418.75,107.805,417.965,105.94,416.588,104.553z"/>
	<path d="M358.735,53.324c-0.488-0.646-0.426-1.555,0.147-2.127l4.513-4.514c6.711-6.704,8.456-16.939,4.357-25.477L361.375,7.88
		c-1.877-3.913-6.578-6.606-9.822-7.457c-1.199-0.314-6.41-1.826-11.914,3.74c-2.297,2.324-9.24,9.244-9.24,9.244
		c-0.556,0.557-1.477,0.489-1.947-0.143l-0.054-0.074c-1.085-1.463-2.47-2.711-4.12-3.481c-4.322-2.014-9.177-1.024-12.315,2.119
		l-32.935,32.948c-2.209,2.21-3.363,5.269-3.141,8.384c0.209,3.116,1.779,5.992,4.263,7.873l0.015,0.012
		c0.785,0.6,0.86,1.753,0.162,2.451l-8.939,8.941c-3.107,3.084-4.532,7.505-3.796,11.829c0.736,4.309,3.523,8.009,7.464,9.907
		l13.343,6.383c2.996,1.442,6.343,2.203,9.659,2.203c5.975,0,11.581-2.322,15.825-6.544l4.522-4.523
		c0.573-0.574,1.482-0.637,2.129-0.148l7.572,5.721c0.284,0.215,0.631,0.268,0.923,0.463l2.073-4.428
		c6.346-13.552,20.787-20.659,34.834-18.425c0.897,0.143,1.738-0.518,1.837-1.421c0.478-4.354-0.487-8.825-3.308-12.55
		L358.735,53.324z M308.173,84.522l-2.987,2.989c-2.979,2.979-7.656,3.804-11.469,1.954l-12.713-6.117
		c-1.007-0.484-1.236-1.816-0.448-2.609l10.013-10.073c0.572-0.576,1.482-0.641,2.131-0.151l15.304,11.563
		C308.79,82.672,308.87,83.825,308.173,84.522z M354.696,37.976l-2.984,2.987c-0.697,0.698-1.85,0.618-2.445-0.169l-11.564-15.3
		c-0.488-0.646-0.426-1.554,0.146-2.127c0,0,9.518-9.527,10.437-10.469c0.763-0.781,1.372-0.359,1.685,0.25
		c0.255,0.497,6.697,13.383,6.697,13.383C358.508,30.368,357.723,34.965,354.696,37.976z"/>
	<path d="M255.352,183.663l-27.5-0.145l-27.605-0.146l9.441,26.194l12.924,35.855c1.691-0.387,3.434-0.634,5.24-0.634
		c1.807,0,3.549,0.247,5.24,0.634l12.924-35.855L255.352,183.663z"/>
	<path d="M369.512,88.648c-10.299-4.829-22.473-0.384-27.262,9.867l-24.812,52.971c-3.38,7.232-9.241,13.046-16.514,16.386
		l-5.134,2.351l-26.98,12.354l-24.77,68.733c4.528,4.3,7.389,10.336,7.389,17.057c0,12.999-10.57,23.578-23.577,23.578
		c-13.006,0-23.579-10.579-23.579-23.578c0-6.722,2.862-12.758,7.392-17.058l-24.277-67.364l-0.493-1.368l-32.114-14.704
		c-7.271-3.34-13.135-9.154-16.53-16.402l-24.796-52.954c-4.789-10.251-16.994-14.696-27.262-9.867
		c-10.251,4.798-14.672,17.003-9.867,27.263l24.779,52.938c7.496,16.026,20.487,28.92,36.602,36.296l39.867,18.12v248.871
		c0,11.597,9.401,20.998,20.999,20.998c11.597,0,20.998-9.401,20.998-20.998V346.637h16.596v125.491
		c0,11.596,9.402,20.999,20.998,20.999c11.582,0,20.983-9.395,20.983-20.983V223.26L318,205.145
		c16.113-7.376,29.103-20.271,36.584-36.28l24.795-52.954C384.184,105.651,379.764,93.446,369.512,88.648z"/>
	<path d="M227.868,170.305c25.229,0,45.684-20.461,45.684-45.697c0-25.245-20.455-45.706-45.684-45.706
		c-25.26,0-45.714,20.461-45.714,45.706C182.154,149.844,202.608,170.305,227.868,170.305z"/>
	<path d="M212.474,268.366c0,8.49,6.89,15.377,15.378,15.377c8.489,0,15.377-6.887,15.377-15.377
		c0-8.489-6.888-15.377-15.377-15.377C219.364,252.988,212.474,259.877,212.474,268.366z"/>
</g>
<g>
</g>
<g>
</g>
<g>
</g>
<g>
</g>
<g>
</g>
<g>
</g>
<g>
</g>
<g>
</g>
<g>
</g>
<g>
</g>
<g>
</g>
<g>
</g>
<g>
</g>
<g>
</g>
<g>
</g>
</svg>
